<svg xmlns="http://www.w3.org/2000/svg" viewBox="0 0 24 24" fill="white" width="24" height="24">
  <path d="M19.915 13.028c-.388-.49-.277-.708 0-1.146.005-.005 2.842-4.004 3.138-5.36.153-.699 0-1.215-.994-1.215h-3.28c-.836 0-1.215.441-1.411.932 0 0-1.635 3.993-3.953 6.591-.75.75-1.08.994-1.08 1.578v3.262c0 .441.357.798.798.798h2.506c.836 0 1.006-.357 1.006-.798v-2.366s3.393.241 3.393 3.262c0 .441.357.798.798.798h2.506c.836 0 1.215-.535.994-1.215-.304-1.356-3.133-5.355-3.138-5.36-.277-.438-.388-.657 0-1.146zm-9.85-2.816c0 3.909-2.506 3.909-2.506 3.909H5.553c-.441 0-.798-.357-.798-.798V7.061c0-.441.357-.798.798-.798h2.506c0 0 2.506 0 2.506 3.909v1.04z"/>
</svg>